<svg preserveAspectRatio="none" overflow="visible" style="display: block;" width="88.7343" height="76.1477" viewBox="0 0 88.7343 76.1477" fill="none" xmlns="http://www.w3.org/2000/svg">
<g id="documents2_svg">
<path id="Vector" d="M36.3971 9.9863C37.0214 7.12462 37.6129 2.36772 39.9288 0.695455C41.2554 -0.262459 43.3017 -0.0337154 44.8522 0.228951C52.9323 1.59758 61.0888 3.12104 69.1329 4.68622C71.4529 5.13766 78.7954 6.38312 80.7701 7.07812C81.7813 7.43178 82.6561 8.09386 83.271 8.97134C85.0006 11.4892 82.2992 21.5781 81.585 25.1327L83.7238 26.0117C86.3908 26.9068 88.6504 28.6363 87.8654 31.679C85.4675 40.9746 82.9855 50.3846 80.3773 59.6312C79.5003 62.7397 77.5782 64.5105 74.2742 63.9414C65.1148 62.3132 55.9832 59.685 46.8939 57.7445C44.5989 57.4165 41.034 56.2575 39.0561 56.2482C37.7574 56.2419 33.5643 57.2745 32.0696 57.6136L20.5807 60.2347C16.2607 61.2261 11.1243 63.1555 9.74291 57.0071C7.13523 45.4025 4.36245 33.7451 2.14805 22.0715C1.42634 18.268 5.8941 16.6985 8.74603 16.2262C10.5827 15.8642 12.78 15.2341 14.7545 14.7613C21.9395 13.04 29.1549 11.4482 36.3971 9.9863Z" fill="#212122"/>
<path id="Vector_2" d="M83.7243 26.0117C86.3913 26.9068 88.6509 28.6363 87.8659 31.679C85.468 40.9746 82.986 50.3846 80.3778 59.6312C79.5008 62.7397 77.5787 64.5105 74.2747 63.9414C65.1153 62.3132 55.9837 59.685 46.8944 57.7445L48.4917 56.0738C49.4031 56.2382 50.7674 56.5245 51.6537 56.5619C50.7101 55.6181 49.6898 56.0512 49.3126 55.0364C49.7617 54.1328 50.1605 53.9166 50.9516 53.3267C53.699 52.5015 55.073 52.0508 56.1609 49.212L56.5464 49.2369C62.9757 50.1699 66.6001 50.9474 73.2529 49.8937C78.5095 47.8952 78.6374 40.309 79.7569 35.149C80.6673 33.815 81.5192 30.7812 82.5028 29.2813C83.1554 28.2862 82.8707 28.5139 83.9754 28.2103L83.8103 28.163C83.7517 27.5233 83.7479 26.6718 83.7243 26.0117Z" fill="#FE6E53"/>
<path id="Vector_3" d="M83.7243 26.0117C86.3913 26.9068 88.6509 28.6363 87.8659 31.679C85.468 40.9746 82.986 50.3846 80.3778 59.6312C79.5008 62.7397 77.5787 64.5105 74.2747 63.9414C65.1153 62.3132 55.9837 59.685 46.8944 57.7445L48.4917 56.0738C49.4031 56.2382 50.7674 56.5245 51.6537 56.5619C54.5235 57.5616 74.146 62.0651 76.5622 61.7539C79.1646 59.9816 84.2236 35.6087 85.8302 31.2462C86.3519 29.8298 85.2655 28.7854 83.9754 28.2103L83.8103 28.163C83.7517 27.5233 83.7479 26.6718 83.7243 26.0117Z" fill="#212122"/>
<path id="Vector_4" d="M59.6933 47.3385C63.0767 48.0353 70.0042 49.6344 73.2534 49.8938C66.6006 50.9474 62.9762 50.17 56.5469 49.237L59.6933 47.3385Z" fill="#CA5C4A"/>
<path id="Vector_5" d="M43.957 54.9348C46.3511 54.3306 48.5291 53.7914 50.952 53.3267C50.161 53.9166 49.7622 54.1328 49.3131 55.0364C49.6903 56.0511 50.7106 55.618 51.6542 56.5619C50.7678 56.5244 49.4036 56.2381 48.4921 56.0737C47.0766 55.6663 45.4052 55.295 43.957 54.9348Z" fill="#CA5C4A"/>
<path id="Vector_6" d="M81.0643 27.5549C82.2723 27.9752 82.5391 28.0348 83.8112 28.163L83.9763 28.2102C82.8716 28.5139 83.1563 28.2861 82.5037 29.2812C81.5201 30.7811 80.6683 33.8149 79.7578 35.1489L81.0643 27.5549Z" fill="#BA4739"/>
<path id="Vector_7" d="M56.0974 46.6921L59.6932 47.3384L56.5467 49.2369L56.1612 49.212L56.0974 46.6921Z" fill="#BA4739"/>
<path id="Vector_8" d="M9.71021 47.1594C8.82465 43.4424 3.9885 22.9446 4.29081 20.5789C6.71152 17.8605 28.2127 14.5086 33.1411 12.9661C35.1042 12.3515 44.6386 10.1816 45.8438 11.0412C47.2083 13.6588 49.3058 23.9742 49.8527 27.3383C50.45 31.0136 54.2767 46.5803 53.7663 49.1632C53.5537 49.4932 52.9559 50.4346 52.5684 50.5336C40.8619 53.5227 28.9485 55.7128 17.2299 58.6954C16.1242 58.9769 14.5205 59.1551 13.3904 59.0324C11.2964 57.5683 10.8516 52.6699 10.3573 50.0171C11.0815 48.9968 11.8497 47.8682 12.6207 46.897C15.8574 41.9599 18.9541 35.3854 22.093 30.8666C26.1416 34.423 30.1266 38.0516 34.0455 41.7505C35.6671 43.2591 40.3605 48.0698 42.2452 48.4655L42.5209 48.3981C44.6401 48.2103 48.4635 47.7179 49.9695 46.2631C50.3776 44.762 50.3776 44.4697 49.3237 43.2916C46.764 41.2423 40.699 34.6171 38.1951 34.3727C36.6944 34.8805 35.2304 37.53 34.3011 38.918C31.0674 36.1302 27.4073 31.8298 23.9071 29.641C23.1984 29.1978 22.3724 28.852 21.5311 29.1033C19.3132 29.7662 13.8015 40.6295 12.3614 43.1204C11.3821 45.0589 11.0084 45.4668 9.71021 47.1594Z" fill="#FCF8F0"/>
<path id="Vector_9" d="M12.3616 43.1204C11.4639 41.3494 8.00211 25.1679 8.35518 23.0934C9.70412 21.121 36.2109 16.3038 40.553 15.03C41.2475 14.8261 42.9463 14.6786 43.4373 15.2811C45.4552 17.7569 45.9186 24.5553 46.6302 27.693C47.6588 32.2279 48.0689 35.9218 49.0326 40.401C49.1874 41.2418 49.3166 42.441 49.3239 43.2916C46.7642 41.2423 40.6992 34.6171 38.1953 34.3728C36.6946 34.8805 35.2305 37.53 34.3013 38.918C31.0676 36.1302 27.4075 31.8298 23.9072 29.641C23.1986 29.1978 22.3726 28.852 21.5313 29.1033C19.3134 29.7662 13.8017 40.6295 12.3616 43.1204Z" fill="#D4EEFB"/>
<path id="Vector_10" d="M32.68 27.4215C31.3069 25.2958 31.46 22.5271 33.0595 20.566C34.6587 18.6047 37.3395 17.8984 39.6974 18.8169C42.055 19.7353 43.5522 22.0692 43.4042 24.5955C43.2565 27.1221 41.4972 29.2652 39.0483 29.9021C36.6128 30.5355 34.0458 29.5357 32.68 27.4215Z" fill="#212122"/>
<path id="Vector_11" d="M34.5851 26.528C33.5862 25.2003 33.5777 23.374 34.564 22.0367C35.5506 20.6998 37.2979 20.1697 38.8609 20.7332C40.4237 21.2967 41.4309 22.8202 41.3377 24.4792C41.2442 26.1384 40.0726 27.5392 38.4563 27.9237C37.0033 28.2696 35.4835 27.7216 34.5851 26.528Z" fill="#DFE163"/>
<path id="Vector_12" d="M34.585 26.528C35.4834 27.7216 37.0032 28.2696 38.4562 27.9237C38.5881 28.7617 38.5863 29.1868 39.048 29.9021C36.6124 30.5356 34.0455 29.5357 32.6797 27.4215C33.6306 27.1624 33.7615 27.0774 34.585 26.528Z" fill="#3B4242"/>
<path id="Vector_13" d="M22.0932 30.8666C26.1418 34.423 30.1268 38.0516 34.0458 41.7505C35.6674 43.2592 40.3608 48.0699 42.2455 48.4655C37.9574 49.6562 32.6963 50.6852 28.3002 51.7331C25.2668 52.4563 18.0434 54.2819 15.2955 54.3012C13.7621 53.4996 13.5699 48.7108 12.621 46.897C15.8576 41.9599 18.9543 35.3855 22.0932 30.8666Z" fill="#62B87A"/>
<path id="Vector_14" d="M39.5217 6.83401C39.8002 5.21553 39.8723 3.57268 41.2436 2.55545C42.0809 1.9346 43.9857 2.32294 44.8969 2.53935C50.359 3.83635 77.9898 8.02166 81.326 9.96665C81.9675 11.5519 81.0262 18.1902 80.2459 20.6231C79.4297 23.1681 76.0468 46.4717 73.7892 47.1798C71.5471 47.8833 61.9032 45.4025 58.7623 44.8191L55.5076 44.1311C54.2827 38.3705 53.0881 32.6037 51.9238 26.8308C51.2873 23.717 50.0462 18.229 49.7899 15.1702C48.6309 10.9153 48.0311 8.19811 42.868 8.49974C41.7665 8.75864 40.2563 8.97028 39.1094 9.16332L39.5217 6.83401Z" fill="#FCF8F0"/>
<path id="Vector_15" d="M49.7889 15.1702C51.22 18.1948 51.7173 20.8207 52.7077 23.8616C54.8547 30.4539 56.4125 38.4407 58.7613 44.8191L55.5066 44.1311C54.2818 38.3706 53.0871 32.6037 51.9229 26.8308C51.2864 23.7171 50.0452 18.229 49.7889 15.1702Z" fill="#989797"/>
<path id="Vector_16" d="M39.5217 6.83398C40.4809 7.33569 41.9035 8.13274 42.868 8.49972C41.7665 8.75861 40.2563 8.97026 39.1094 9.1633L39.5217 6.83398Z" fill="#797979"/>
<path id="Vector_17" d="M54.8639 13.1569C56.9396 13.1614 73.2182 16.1193 74.4166 17.0488C74.7782 17.9082 74.6146 17.8743 74.4179 18.8933C72.3429 18.8511 55.7125 15.6664 54.8556 14.9005C54.5365 13.9587 54.6121 14.3216 54.8639 13.1569Z" fill="#212122"/>
<path id="Vector_18" d="M56.7931 21.2175C58.8597 21.3922 71.5797 23.7102 72.799 24.5558C73.2307 25.4549 73.09 25.1892 72.9025 26.3721C70.9945 26.3939 57.6922 23.9955 56.6069 22.9504C56.3491 22.138 56.5149 22.138 56.7931 21.2175Z" fill="#212122"/>
<path id="Vector_19" d="M59.1749 29.7252C60.9565 29.8612 70.0403 31.5222 71.3299 32.4469C71.58 33.3759 71.4948 33.1054 71.2171 34.1621C69.4571 34.1242 60.1564 32.4632 58.9625 31.485C58.7341 30.5275 58.8133 30.8098 59.1749 29.7252Z" fill="#212122"/>
<path id="Vector_20" d="M38.5278 36.589C41.6471 39.1478 47.1788 44.3212 49.9689 46.2631C48.4629 47.718 44.6395 48.2104 42.5203 48.3982C42.8372 47.9445 42.8184 47.9764 42.9325 47.4332C42.252 45.9914 37.3381 41.7996 35.8711 40.4199L38.5278 36.589Z" fill="#62B87A"/>
<path id="Vector_21" d="M83.3664 72.0559C85.1923 72.2502 86.5224 74.4222 86.2386 76.1477C84.3587 76.0962 83.0233 73.7769 83.3664 72.0559Z" fill="#212122"/>
<path id="Vector_22" d="M0.700421 4.04017C2.27402 4.15504 4.15671 5.91353 3.94387 7.62626L3.02337 7.59207C1.41936 6.63666 0.478277 6.02889 0.700421 4.04017Z" fill="#212122"/>
<path id="Vector_23" d="M7.98717 3.83992C8.537 3.80323 8.56916 3.87335 9.0524 4.12345L9.19564 4.67015C8.86042 5.69165 7.83866 6.729 7.1177 7.56978C6.34974 7.42224 6.14117 7.17114 6.00195 6.47036C6.34195 5.49234 7.26067 4.63848 7.98717 3.83992Z" fill="#212122"/>
<path id="Vector_24" d="M3.00722 9.61218C3.74426 9.6705 3.40276 9.56115 4.04683 10.0091C4.10236 11.295 2.83861 12.3404 1.91259 13.3626C1.40548 13.1887 1.47282 13.1827 1.02552 12.8705L0.917969 12.2527C1.28285 11.2686 2.25509 10.4004 3.00722 9.61218Z" fill="#212122"/>
<path id="Vector_25" d="M6.21235 9.30225C7.29845 9.32261 8.26366 10.1337 8.91979 10.9853C9.52616 11.7723 9.3897 11.8683 9.20148 12.7566C7.5344 12.6526 6.16059 11.0012 6.21235 9.30225Z" fill="#2B2D2D"/>
<path id="Vector_26" d="M79.6079 65.824C81.0918 66.2221 82.3945 68.1955 81.5602 69.7914C80.017 69.5126 79.1199 67.2497 79.6079 65.824Z" fill="#2B2D2D"/>
<path id="Vector_27" d="M80.3957 71.4033C80.8935 71.4393 80.9606 71.5581 81.3639 71.86L81.3798 72.3585C80.8134 73.2817 79.9522 73.7294 79.0402 74.3238C78.6047 74.3153 78.4351 74.1617 78.0486 73.9448L77.9785 73.4941C78.4773 72.6314 79.5579 71.9943 80.3957 71.4033Z" fill="#2B2D2D"/>
<path id="Vector_28" d="M86.2471 67.4039C86.8027 67.5437 86.5509 67.4193 86.9992 67.8438C86.8259 69.033 85.696 69.6845 84.7208 70.4265C83.893 69.7614 84.0295 70.0758 83.9121 69.2308C84.4298 68.3608 85.3483 67.9491 86.2471 67.4039Z" fill="#212122"/>
<path id="Vector_29" d="M0.783294 33.2568C1.38766 33.0331 2.06062 33.3269 2.30739 33.9221C2.55441 34.5173 2.28728 35.2013 1.70227 35.4712C1.30297 35.6557 0.835056 35.6067 0.48249 35.3438C0.129925 35.0809 -0.0504967 34.646 0.0123268 34.2107C0.0751502 33.7753 0.370921 33.4093 0.783294 33.2568Z" fill="#212122"/>
<path id="Vector_30" d="M1.74341 38.297C2.34124 38.0079 3.0602 38.2626 3.34315 38.8635C3.62611 39.4648 3.36451 40.1812 2.7609 40.4581C2.16559 40.7314 1.46146 40.4742 1.18252 39.8815C0.903337 39.2889 1.15362 38.582 1.74341 38.297Z" fill="#212122"/>
<path id="Vector_31" d="M4.22078 48.3672C4.82137 48.2109 5.44081 48.5454 5.63934 49.1336C5.83811 49.7218 5.54862 50.3635 4.97618 50.6035C4.56782 50.7747 4.09816 50.7036 3.75891 50.419C3.41966 50.1345 3.26762 49.6843 3.36487 49.2525C3.46212 48.8204 3.79232 48.4788 4.22078 48.3672Z" fill="#212122"/>
<path id="Vector_32" d="M3.05796 43.3205C3.63946 43.1406 4.26242 43.4337 4.49462 43.9967C4.72682 44.5595 4.4916 45.2067 3.95232 45.4892C3.55679 45.6964 3.07832 45.6619 2.71645 45.4005C2.35484 45.1391 2.17191 44.6955 2.24403 44.2548C2.31641 43.8145 2.63152 43.4525 3.05796 43.3205Z" fill="#212122"/>
<path id="Vector_33" d="M76.7198 1.04133C77.3109 0.790731 77.9931 1.06722 78.2429 1.65866C78.4927 2.2501 78.2153 2.93228 77.6237 3.18112C77.0332 3.42971 76.3529 3.15296 76.1036 2.56278C75.8543 1.97235 76.13 1.29168 76.7198 1.04133Z" fill="#212122"/>
<path id="Vector_34" d="M81.3649 2.30137C81.9321 2.06082 82.5882 2.30588 82.8591 2.85937C83.13 3.4126 82.9209 4.08146 82.3829 4.38183C82.0082 4.59095 81.5486 4.57613 81.1882 4.34287C80.8276 4.10987 80.6256 3.69663 80.6625 3.26908C80.6997 2.84127 80.9699 2.46902 81.3649 2.30137Z" fill="#212122"/>
<path id="Vector_35" d="M5.08354 53.5896C5.43836 53.3659 5.88642 53.3518 6.25482 53.5527C6.62296 53.7535 6.8539 54.1378 6.85818 54.5573C6.86245 54.9769 6.63955 55.3659 6.27568 55.5741C5.72911 55.887 5.03278 55.7053 4.70836 55.1654C4.38419 54.6255 4.55079 53.9254 5.08354 53.5896Z" fill="#212122"/>
<path id="Vector_36" d="M7.08354 59.5896C7.43836 59.3659 7.88642 59.3518 8.25482 59.5527C8.62296 59.7535 8.8539 60.1378 8.85818 60.5573C8.86245 60.9769 8.63955 61.3659 8.27568 61.5741C7.72911 61.887 7.03278 61.7053 6.70836 61.1654C6.38419 60.6255 6.55079 59.9254 7.08354 59.5896Z" fill="#212122"/>
<path id="Vector_37" d="M12.0835 63.5896C12.4384 63.3659 12.8864 63.3518 13.2548 63.5527C13.623 63.7535 13.8539 64.1378 13.8582 64.5573C13.8624 64.9769 13.6396 65.3659 13.2757 65.5741C12.7291 65.887 12.0328 65.7053 11.7084 65.1654C11.3842 64.6255 11.5508 63.9254 12.0835 63.5896Z" fill="#212122"/>
<path id="Vector_38" d="M86.6867 8.83888C87.0428 8.59783 87.5042 8.57798 87.8796 8.78761C88.2553 8.99699 88.481 9.40016 88.4631 9.82973C88.4453 10.2595 88.1872 10.6426 87.7957 10.8203C87.2567 11.0651 86.6201 10.856 86.3309 10.3395C86.0417 9.82269 86.1962 9.17067 86.6867 8.83888Z" fill="#212122"/>
<path id="Vector_39" d="M87.4052 13.1533C87.9334 13.0241 88.4747 13.3104 88.6657 13.8197C88.8567 14.3289 88.6371 14.9005 88.1543 15.1509C87.7862 15.3414 87.3414 15.3034 87.0112 15.0531C86.681 14.8027 86.5242 14.3847 86.6084 13.9788C86.6926 13.5729 87.0026 13.2516 87.4052 13.1533Z" fill="#2B2D2D"/>
<path id="Vector_40" d="M85.0949 5.09031C85.6347 4.84977 86.2672 5.09257 86.5072 5.63273C86.7469 6.17289 86.5034 6.8053 85.9632 7.04459C85.4236 7.28363 84.7929 7.04032 84.5534 6.50117C84.3137 5.96201 84.5562 5.33061 85.0949 5.09031Z" fill="#212122"/>
<path id="Vector_41" d="M86.2385 19.9171C86.8037 19.8103 87.3502 20.176 87.4676 20.739C87.5849 21.3023 87.2296 21.8558 86.6687 21.9837C86.2966 22.0684 85.9075 21.9455 85.6515 21.6625C85.3954 21.3792 85.3122 20.9798 85.4341 20.6179C85.5557 20.2559 85.8633 19.988 86.2385 19.9171Z" fill="#2B2D2D"/>
<path id="Vector_42" d="M86.5575 17.1629C87.0342 16.8872 87.6439 17.0478 87.9233 17.5223C88.2025 17.9971 88.0467 18.6082 87.5742 18.8912C87.0968 19.1773 86.4776 19.0194 86.1954 18.5393C85.9129 18.0595 86.0755 17.4417 86.5575 17.1629Z" fill="#212122"/>
</g>
</svg>
